# File created by Blade
# Date/Time:  Tue Jan 27 18:09:18 2015
#---------------------------------------------------------
:version 1.10
:name HOM
:units
  mass 1.0
  length 1.000000
  angle deg
:documentation
     Acclaim Skeleton File
:root
   axis xyz
   order TX TY TZ RX RY RZ
   position 0.000000 0.000000 0.000000
   orientation 0 0 0
:bonedata
   begin
      id 1
      name Spine_dum
      direction 0.000000 1.000000 0.000000
      length 5.195262
      axis 0.0 0.0 0.0 xyz
   end
   begin
      id 2
      name LeftUpLeg_dum
      direction 1.000000 0.000000 0.000000
      length 3.351363
      axis 0.0 0.0 0.0 xyz
   end
   begin
      id 3
      name RightUpLeg_dum
      direction -1.000000 0.000000 0.000000
      length 3.351363
      axis 0.0 0.0 0.0 xyz
   end
   begin
      id 4
      name Spine
      direction 0.000000 1.000000 0.000000
      length 0.000000
      axis 0.0 0.0 0.0 xyz
      dof rx ry rz
   end
   begin
      id 5
      name Spine_dum1
      direction 0.000000 1.000000 0.000000
      length 15.653875
      axis 0.0 0.0 0.0 xyz
   end
   begin
      id 6
      name Spine_dum2
      direction 0.000000 1.000000 0.000000
      length 10.329768
      axis 0.0 0.0 0.0 xyz
   end
   begin
      id 7
      name Spine_dum3
      direction 0.000000 1.000000 0.000000
      length 10.329768
      axis 0.0 0.0 0.0 xyz
   end
   begin
      id 8
      name Head
      direction 0.000000 1.000000 0.000000
      length 4.527550
      axis 0.0 0.0 0.0 xyz
      dof rx ry rz
   end
   begin
      id 9
      name LeftShoulder
      direction 1.000000 0.000000 0.000000
      length 6.996006
      axis 0.0 0.0 -90.0 xyz
      dof rx ry rz
   end
   begin
      id 10
      name LeftArm
      direction 1.000000 0.000000 0.000000
      length 10.209302
      axis 0.0 0.0 -90.0 xyz
      dof rx ry rz
   end
   begin
      id 11
      name LeftForeArm
      direction 1.000000 0.000000 0.000000
      length 8.563163
      axis 0.0 0.0 -90.0 xyz
      dof ry rz rx
   end
   begin
      id 12
      name LeftHand
      direction 0.000000 0.000000 0.000000
      length 0.000000
      axis 0.0 0.0 -90.0 xyz
      dof rx ry rz
   end
   begin
      id 13
      name LeftHand_dum1
      direction 0.000000 0.000000 0.000000
      length 0.000000
      axis 0.0 0.0 -90.0 xyz
   end
   begin
      id 14
      name LeftHand_dum2
      direction 1.000000 0.000000 0.000000
      length 3.937000
      axis 0.0 0.0 -90.0 xyz
   end
   begin
      id 15
      name LeftHandThumb1
      direction 0.000000 0.000000 1.000000
      length 3.937000
      axis 0.0 0.0 -90.0 xyz
      dof rx rz ry
   end
   begin
      id 16
      name RightShoulder
      direction -1.000000 0.000000 0.000000
      length 6.996006
      axis 0.0 0.0 90.0 xyz
      dof rx ry rz
   end
   begin
      id 17
      name RightArm
      direction -1.000000 0.000000 0.000000
      length 10.209302
      axis 0.0 0.0 90.0 xyz
      dof rx ry rz
   end
   begin
      id 18
      name RightForeArm
      direction -1.000000 0.000000 0.000000
      length 8.563163
      axis 0.0 0.0 90.0 xyz
      dof ry rz rx
   end
   begin
      id 19
      name RightHand
      direction 0.000000 0.000000 0.000000
      length 0.000000
      axis 0.0 0.0 90.0 xyz
      dof rx ry rz
   end
   begin
      id 20
      name RightHand_dum1
      direction 0.000000 0.000000 0.000000
      length 0.000000
      axis 0.0 0.0 90.0 xyz
   end
   begin
      id 21
      name RightHand_dum2
      direction -1.000000 0.000000 0.000000
      length 3.937000
      axis 0.0 0.0 90.0 xyz
   end
   begin
      id 22
      name RightHandThumb1
      direction 0.000000 0.000000 1.000000
      length 3.937000
      axis 0.0 0.0 90.0 xyz
      dof rx rz ry
   end
   begin
      id 23
      name LeftUpLeg
      direction 0.000000 -1.000000 0.000000
      length 16.346831
      axis 0.0 0.0 0.0 xyz
      dof rx ry rz
   end
   begin
      id 24
      name LeftLeg
      direction 0.000000 -1.000000 0.000000
      length 13.959795
      axis 0.0 0.0 0.0 xyz
      dof rx ry rz
   end
   begin
      id 25
      name LeftFoot
      direction 0.000000 -0.258819 0.965926
      length 5.165550
      axis 15.0 0.0 0.0 xyz
      dof rx ry rz
   end
   begin
      id 26
      name LeftToeBase
      direction 0.000000 0.000000 1.000000
      length 2.952750
      axis 0.0 0.0 0.0 xyz
      dof rx ry rz
   end
   begin
      id 27
      name RightUpLeg
      direction 0.000000 -1.000000 0.000000
      length 16.346831
      axis 0.0 0.0 0.0 xyz
      dof rx ry rz
   end
   begin
      id 28
      name RightLeg
      direction 0.000000 -1.000000 0.000000
      length 13.959795
      axis 0.0 0.0 0.0 xyz
      dof rx ry rz
   end
   begin
      id 29
      name RightFoot
      direction 0.000000 -0.258819 0.965926
      length 5.165550
      axis 15.0 0.0 0.0 xyz
      dof rx ry rz
   end
   begin
      id 30
      name RightToeBase
      direction 0.000000 0.000000 1.000000
      length 2.952750
      axis 0.0 0.0 0.0 xyz
      dof rx ry rz
   end
:hierarchy
   begin
      root Spine_dum LeftUpLeg_dum RightUpLeg_dum
      Spine_dum Spine
      LeftUpLeg_dum LeftUpLeg
      RightUpLeg_dum RightUpLeg
      Spine Spine_dum1 Spine_dum2 Spine_dum3
      Spine_dum1 Head
      Spine_dum2 LeftShoulder
      Spine_dum3 RightShoulder
      LeftShoulder LeftArm
      LeftArm LeftForeArm
      LeftForeArm LeftHand
      LeftHand LeftHand_dum1 LeftHand_dum2
      LeftHand_dum1 LeftHandThumb1
      RightShoulder RightArm
      RightArm RightForeArm
      RightForeArm RightHand
      RightHand RightHand_dum1 RightHand_dum2
      RightHand_dum1 RightHandThumb1
      LeftUpLeg LeftLeg
      LeftLeg LeftFoot
      LeftFoot LeftToeBase
      RightUpLeg RightLeg
      RightLeg RightFoot
      RightFoot RightToeBase
   end

# File created by Blade
# Date/Time:  Tue Jan 27 18:09:10 2015
# Frame Rate: 120.000 fps
#------------------------------------------------------
:FULLY-SPECIFIED
:DEGREES
1155
root -1.456362 31.854894 -6.554148 6.054939 16.889517 4.544758
Spine -7.546365 0.007105 -3.197605
Head -1.752153 -14.940764 -3.162296
LeftShoulder -8.392944 16.426842 5.232179
LeftArm 27.463485 41.710347 -68.093927
LeftForeArm -2.483998 0.000000 14.062756
LeftHand -10.930307 -0.000000 -4.975828
LeftHandThumb1 -26.253704 0.000000 33.147579
RightShoulder 2.355688 33.099135 -34.950456
RightArm 59.501369 29.516108 109.731054
RightForeArm 30.591469 -0.000000 92.031976
RightHand -5.639539 -0.000000 12.277368
RightHandThumb1 -24.326973 -0.000000 -32.862282
LeftUpLeg -2.641946 -6.996241 -1.165381
LeftLeg 1.461147 -0.000000 -0.000000
LeftFoot -15.342363 13.287522 -24.320843
LeftToeBase 8.630357 -0.000000 -0.000000
RightUpLeg 3.171708 -10.220826 -3.999599
RightLeg -3.477510 -0.000000 0.000000
RightFoot -16.931233 -17.586886 10.652474
RightToeBase 5.286959 -0.000000 -0.000000
1156
root -1.455315 31.854416 -6.554701 6.040539 16.868965 4.541583
Spine -7.558464 0.011964 -3.203668
Head -1.712205 -15.028918 -3.053398
LeftShoulder -8.382156 16.417602 5.242075
LeftArm 27.459141 41.743707 -68.078677
LeftForeArm -2.563684 -0.000000 14.073676
LeftHand -10.795531 -0.000000 -4.447399
LeftHandThumb1 -26.253704 0.000000 33.147579
RightShoulder 2.288450 33.058430 -35.112312
RightArm 59.496670 29.344870 109.379369
RightForeArm 30.329819 -0.000000 89.745545
RightHand -5.946187 -0.000000 11.620048
RightHandThumb1 -24.326973 -0.000000 -32.862282
LeftUpLeg -2.633185 -6.983606 -1.168936
LeftLeg 1.476351 -0.000000 -0.000000
LeftFoot -15.356016 13.298966 -24.314635
LeftToeBase 8.605732 -0.000000 -0.000000
RightUpLeg 3.179997 -10.208084 -4.004684
RightLeg -3.474020 -0.000000 0.000000
RightFoot -16.939470 -17.560792 10.676971
RightToeBase 5.331763 -0.000000 -0.000000
1157
root -1.454832 31.854002 -6.554640 6.022802 16.851378 4.535759
Spine -7.569777 0.020688 -3.215109
Head -1.647939 -15.110856 -2.965981
LeftShoulder -8.357271 16.433948 5.258224
LeftArm 27.452354 41.696257 -68.109398
LeftForeArm -2.495398 -0.000000 14.053932
LeftHand -10.791123 -0.000000 -4.409127
LeftHandThumb1 -26.253704 0.000000 33.147579
RightShoulder 2.228979 33.008026 -35.249934
RightArm 59.530149 29.169856 109.020207
RightForeArm 30.228017 0.000000 87.464927
RightHand -6.316747 -0.000000 11.029449
RightHandThumb1 -24.326973 -0.000000 -32.862282
LeftUpLeg -2.619930 -6.955026 -1.167171
LeftLeg 1.493266 -0.000000 -0.000000
LeftFoot -15.369560 13.269151 -24.316809
LeftToeBase 8.626682 -0.000000 -0.000000
RightUpLeg 3.194674 -10.200472 -4.003090
RightLeg -3.478428 -0.000000 0.000000
RightFoot -16.930367 -17.564022 10.637589
RightToeBase 5.366786 -0.000000 -0.000000
1158
root -1.455005 31.854223 -6.555326 6.007229 16.833086 4.530714
Spine -7.569215 0.032527 -3.232240
Head -1.580857 -15.174951 -2.916213
LeftShoulder -8.373977 16.410135 5.263905
LeftArm 27.452238 41.720410 -68.095052
LeftForeArm -2.492465 -0.000000 14.066271
LeftHand -10.838170 -0.000000 -4.431937
LeftHandThumb1 -26.253704 0.000000 33.147579
RightShoulder 2.152835 32.960162 -35.368925
RightArm 59.548941 28.982675 108.646023
RightForeArm 29.874765 -0.000000 85.198676
RightHand -6.457096 -0.000000 10.680032
RightHandThumb1 -24.326973 -0.000000 -32.862282
LeftUpLeg -2.606571 -6.944261 -1.165625
LeftLeg 1.497768 -0.000000 -0.000000
LeftFoot -15.385690 13.265786 -24.348751
LeftToeBase 8.647720 -0.000000 -0.000000
RightUpLeg 3.202902 -10.189942 -4.002731
RightLeg -3.475437 -0.000000 0.000000
RightFoot -16.923726 -17.551676 10.654454
RightToeBase 5.283956 -0.000000 -0.000000
1159
root -1.455146 31.854571 -6.556244 5.995587 16.810303 4.531374
Spine -7.565925 0.049213 -3.256774
Head -1.550787 -15.243558 -2.840059
LeftShoulder -8.433285 16.424963 5.249383
LeftArm 27.575538 41.793200 -67.978022
LeftForeArm -2.538793 -0.000000 14.033589
LeftHand -10.802581 -0.000000 -4.420222
LeftHandThumb1 -26.253704 0.000000 33.147579
RightShoulder 2.069653 32.973809 -35.478088
RightArm 59.541974 28.802374 108.283632
RightForeArm 29.663635 0.000000 82.929869
RightHand -6.758075 -0.000000 10.234514
RightHandThumb1 -24.326973 -0.000000 -32.862282
LeftUpLeg -2.595185 -6.944096 -1.171775
LeftLeg 1.494652 -0.000000 -0.000000
LeftFoot -15.373762 13.309364 -24.314318
LeftToeBase 8.597188 -0.000000 -0.000000
RightUpLeg 3.206107 -10.192456 -4.008224
RightLeg -3.470511 -0.000000 0.000000
RightFoot -16.908275 -17.535138 10.627278
RightToeBase 5.282444 -0.000000 -0.000000
